<svg version="1.2" xmlns="http://www.w3.org/2000/svg" viewBox="0 0 1350 256" width="1350" height="256">
	<title>uw-coursemap-logo</title>
	<style>
		.s0 { fill: none;stroke: #c5050c;stroke-linecap: round;stroke-linejoin: round;stroke-width: 15 } 
		.s1 { fill: #c5050c;stroke: #c5050c;stroke-linecap: round;stroke-linejoin: round;stroke-width: 14 } 
		.s2 { fill: #ffffff } 
	</style>
	<g id="Layer 1">
		<path fill-rule="evenodd" class="s0" d="m222.2 90.6c-15-8.6-20.3-27.8-11.8-43.8 8.6-14.9 28.9-20.3 43.8-11.7 15 9.6 20.3 28.8 11.8 43.7-8.6 16-28.9 21.4-43.8 11.8z"/>
		<path fill-rule="evenodd" class="s1" d="m73.8 91.6c-14.9-8.5-20.3-28.8-11.7-43.7 8.5-15 28.8-20.3 43.7-11.8 15 8.6 20.3 28.9 11.8 43.8-8.6 14.9-28.8 20.3-43.8 11.7z"/>
		<path fill-rule="evenodd" class="s0" d="m147.5 220.8c-15-9.6-20.3-28.8-11.8-43.8 8.6-16 28.8-21.3 43.8-11.7 14.9 8.5 20.3 27.8 11.7 43.8-8.5 14.9-28.8 20.2-43.7 11.7z"/>
		<path fill-rule="evenodd" class="s0" d="m105.8 91.6l38 67.2"/>
		<path fill-rule="evenodd" class="s0" d="m206.2 63.9h-84.4"/>
		<path id="UW Course Map" class="s2" aria-label="UW Course Map"  d="m396.1 76.6h19.1v60.9q0 15.1-9.5 23.9-9.5 8.9-25.9 8.9-16.2 0-25.7-8.6-9.5-8.6-9.7-23.5v-61.6h19v61q0 9.1 4.3 13.2 4.4 4.2 12.1 4.2 16 0 16.3-16.9zm91.5 0l15.2 65.7 12.4-65.7h19l-20.5 92.4h-19.2l-15-61.8-15 61.8h-19.2l-20.5-92.4h19l12.5 65.6 15.2-65.6zm142.8 61.6h19q-1.1 14.9-11 23.5-9.9 8.6-26.2 8.6-17.8 0-28-12-10.1-12-10.1-32.8v-5.7q0-13.3 4.7-23.5 4.7-10.1 13.4-15.5 8.7-5.5 20.3-5.5 16 0 25.7 8.6 9.8 8.6 11.3 24h-19q-0.7-8.9-5-12.9-4.3-4.1-13-4.1-9.6 0-14.3 6.9-4.7 6.8-4.8 21.1v7q0 15 4.5 21.9 4.5 6.9 14.3 6.9 8.8 0 13.2-4 4.3-4 5-12.5zm27.5-3.3v-0.9q0-10.2 3.9-18.2 3.9-8 11.3-12.4 7.4-4.3 17.2-4.3 13.9 0 22.6 8.5 8.9 8.5 9.9 23.1l0.1 4.7q0 15.8-8.8 25.4-8.8 9.5-23.7 9.5-14.8 0-23.7-9.5-8.8-9.6-8.8-25.9zm18.3 0.5q0 9.7 3.7 14.9 3.7 5.2 10.5 5.2 6.7 0 10.4-5.1 3.8-5.1 3.8-16.4 0-9.6-3.8-14.8-3.7-5.3-10.5-5.3-6.7 0-10.4 5.3-3.7 5.2-3.7 16.2zm99.7 33.6l-0.6-7q-6.7 8.3-18.7 8.3-11.1 0-16.9-6.4-5.8-6.3-5.9-18.6v-45h18.3v44.4q0 10.7 9.8 10.7 9.3 0 12.8-6.4v-48.7h18.4v68.7zm70-69.1l-0.3 17.6q-3.7-0.5-6.6-0.5-10.4 0-13.6 7.1v44.9h-18.4v-68.7h17.4l0.5 8.2q5.5-9.4 15.3-9.4 3 0 5.7 0.8zm45.7 50.1q0-3.3-3.3-5.2-3.3-2-10.7-3.5-24.5-5.2-24.5-20.9 0-9.1 7.6-15.2 7.6-6.1 19.8-6.1 13.1 0 20.9 6.1 7.9 6.2 7.9 16h-18.4q0-3.9-2.5-6.5-2.5-2.6-7.9-2.6-4.7 0-7.2 2.1-2.5 2.1-2.5 5.4 0 3 2.8 4.9 2.9 1.9 9.8 3.2 6.8 1.4 11.5 3.1 14.6 5.3 14.6 18.5 0 9.4-8.1 15.2-8 5.8-20.8 5.8-8.6 0-15.4-3.1-6.6-3.1-10.4-8.4-3.9-5.4-3.9-11.6h17.4q0.3 4.9 3.7 7.5 3.3 2.6 9 2.6 5.2 0 7.9-2 2.7-2 2.7-5.3zm61.3 20.3q-15.1 0-24.6-9.3-9.5-9.3-9.5-24.7v-1.8q0-10.3 4-18.4 4-8.2 11.3-12.6 7.4-4.4 16.8-4.4 14.1 0 22.1 8.8 8.1 8.9 8.1 25.2v7.5h-43.7q0.9 6.8 5.3 10.8 4.5 4.1 11.4 4.1 10.6 0 16.6-7.7l9 10.1q-4.1 5.8-11.2 9.1-7 3.3-15.6 3.3zm-2.1-56.4q-5.5 0-8.9 3.7-3.4 3.7-4.3 10.5h25.5v-1.4q-0.1-6.1-3.3-9.4-3.2-3.4-9-3.4zm74.3-37.3h24.9l23.8 67 23.6-67h25v92.4h-19.1v-25.3l1.9-43.6-25 68.9h-13.1l-24.8-68.8 1.9 43.5v25.3h-19.1zm171 92.4h-18.5q-1.3-2.4-1.8-6.1-6.7 7.4-17.4 7.4-10.1 0-16.7-5.8-6.6-5.9-6.6-14.8 0-10.9 8-16.7 8.2-5.9 23.5-5.9h8.4v-4q0-4.7-2.5-7.6-2.4-2.8-7.7-2.8-4.6 0-7.3 2.2-2.6 2.2-2.6 6.1h-18.3q0-6 3.7-11.1 3.7-5 10.4-7.9 6.7-2.9 15.1-2.9 12.7 0 20.1 6.4 7.5 6.3 7.5 17.9v29.8q0.1 9.7 2.7 14.8zm-33.7-12.8q4.1 0 7.5-1.8 3.4-1.8 5.1-4.9v-11.8h-6.9q-13.7 0-14.6 9.5l-0.1 1.1q0 3.4 2.4 5.7 2.4 2.2 6.6 2.2zm106.9-21.9v0.9q0 15.9-7.2 25.5-7.2 9.5-19.4 9.5-10.4 0-16.9-7.2v32.4h-18.3v-95.1h17l0.6 6.7q6.7-8 17.4-8 12.7 0 19.8 9.4 7 9.4 7 25.9zm-18.3-0.4q0-9.6-3.4-14.8-3.4-5.2-9.9-5.2-8.6 0-11.9 6.6v28.1q3.4 6.8 12 6.8 13.2 0 13.2-21.5z"/>
	</g>
</svg>