<svg version="1.2" xmlns="http://www.w3.org/2000/svg" viewBox="0 0 1350 256" width="1350" height="256">
	<title>uw-coursemap-logo</title>
	<style>
		.s0 { fill: none;stroke: #c5050c;stroke-linecap: round;stroke-linejoin: round;stroke-width: 15 } 
		.s1 { fill: #c5050c;stroke: #c5050c;stroke-linecap: round;stroke-linejoin: round;stroke-width: 14 } 
		.s2 { fill: #000000 } 
	</style>
	<g id="Layer 1">
		<path fill-rule="evenodd" class="s0" d="m222.2 90.6c-15-8.6-20.3-27.8-11.8-43.8 8.6-14.9 28.9-20.3 43.8-11.7 15 9.6 20.3 28.8 11.8 43.7-8.6 16-28.9 21.4-43.8 11.8z"/>
		<path fill-rule="evenodd" class="s1" d="m73.8 91.6c-14.9-8.5-20.3-28.8-11.7-43.7 8.5-15 28.8-20.3 43.7-11.8 15 8.6 20.3 28.9 11.8 43.8-8.6 14.9-28.8 20.3-43.8 11.7z"/>
		<path fill-rule="evenodd" class="s0" d="m147.5 220.8c-15-9.6-20.3-28.8-11.8-43.8 8.6-16 28.8-21.3 43.8-11.7 14.9 8.5 20.3 27.8 11.7 43.8-8.5 14.9-28.8 20.2-43.7 11.7z"/>
		<path fill-rule="evenodd" class="s0" d="m105.8 91.6l38 67.2"/>
		<path fill-rule="evenodd" class="s0" d="m206.2 63.9h-84.4"/>
		<path id="UW Course Map" class="s2" aria-label="UW Course Map"  d="m396.1 51.6h19.1v60.9q0 15.1-9.5 23.9-9.5 8.9-25.9 8.9-16.2 0-25.7-8.6-9.5-8.6-9.7-23.5v-61.6h19v61q0 9.1 4.3 13.2 4.4 4.2 12.1 4.2 16 0 16.3-16.9zm91.5 0l15.2 65.7 12.4-65.7h19l-20.5 92.4h-19.2l-15-61.8-15 61.8h-19.2l-20.5-92.4h19l12.5 65.6 15.2-65.6zm142.8 61.6h19q-1.1 14.9-11 23.5-9.9 8.6-26.2 8.6-17.8 0-28-12-10.1-12-10.1-32.8v-5.7q0-13.3 4.7-23.5 4.7-10.1 13.4-15.5 8.7-5.5 20.3-5.5 16 0 25.7 8.6 9.8 8.6 11.3 24h-19q-0.7-8.9-5-12.9-4.3-4.1-13-4.1-9.6 0-14.3 6.9-4.7 6.8-4.8 21.1v7q0 15 4.5 21.9 4.5 6.9 14.3 6.9 8.8 0 13.2-4 4.3-4 5-12.5zm27.5-3.3v-0.9q0-10.2 3.9-18.2 3.9-8 11.3-12.4 7.4-4.3 17.2-4.3 13.9 0 22.6 8.5 8.9 8.5 9.9 23.1l0.1 4.7q0 15.8-8.8 25.4-8.8 9.5-23.7 9.5-14.8 0-23.7-9.5-8.8-9.6-8.8-25.9zm18.3 0.5q0 9.7 3.7 14.9 3.7 5.2 10.5 5.2 6.7 0 10.4-5.1 3.8-5.1 3.8-16.4 0-9.6-3.8-14.8-3.7-5.3-10.5-5.3-6.7 0-10.4 5.3-3.7 5.2-3.7 16.2zm99.7 33.6l-0.6-7q-6.7 8.3-18.7 8.3-11.1 0-16.9-6.4-5.8-6.3-5.9-18.6v-45h18.3v44.4q0 10.7 9.8 10.7 9.3 0 12.8-6.4v-48.7h18.4v68.7zm70-69.1l-0.3 17.6q-3.7-0.5-6.6-0.5-10.4 0-13.6 7.1v44.9h-18.4v-68.7h17.4l0.5 8.2q5.5-9.4 15.3-9.4 3 0 5.7 0.8zm45.7 50.1q0-3.3-3.3-5.2-3.3-2-10.7-3.5-24.5-5.2-24.5-20.9 0-9.1 7.6-15.2 7.6-6.1 19.8-6.1 13.1 0 20.9 6.1 7.9 6.2 7.9 16h-18.4q0-3.9-2.5-6.5-2.5-2.6-7.9-2.6-4.7 0-7.2 2.1-2.5 2.1-2.5 5.4 0 3 2.8 4.9 2.9 1.9 9.8 3.2 6.8 1.4 11.5 3.1 14.6 5.3 14.6 18.5 0 9.4-8.1 15.2-8 5.8-20.8 5.8-8.6 0-15.4-3.1-6.6-3.1-10.4-8.4-3.9-5.4-3.9-11.6h17.4q0.3 4.9 3.7 7.5 3.3 2.6 9 2.6 5.2 0 7.9-2 2.7-2 2.7-5.3zm61.3 20.3q-15.1 0-24.6-9.3-9.5-9.3-9.5-24.7v-1.8q0-10.3 4-18.4 4-8.2 11.3-12.6 7.4-4.4 16.8-4.4 14.1 0 22.1 8.8 8.1 8.9 8.1 25.2v7.5h-43.7q0.9 6.8 5.3 10.8 4.5 4.1 11.4 4.1 10.6 0 16.6-7.7l9 10.1q-4.1 5.8-11.2 9.1-7 3.3-15.6 3.3zm-2.1-56.4q-5.5 0-8.9 3.7-3.4 3.7-4.3 10.5h25.5v-1.4q-0.1-6.1-3.3-9.4-3.2-3.4-9-3.4zm74.3-37.3h24.9l23.8 67 23.6-67h25v92.4h-19.1v-25.3l1.9-43.6-25 68.9h-13.1l-24.8-68.8 1.9 43.5v25.3h-19.1zm171 92.4h-18.5q-1.3-2.4-1.8-6.1-6.7 7.4-17.4 7.4-10.1 0-16.7-5.8-6.6-5.9-6.6-14.8 0-10.9 8-16.7 8.2-5.9 23.5-5.9h8.4v-4q0-4.7-2.5-7.6-2.4-2.8-7.7-2.8-4.6 0-7.3 2.2-2.6 2.2-2.6 6.1h-18.3q0-6 3.7-11.1 3.7-5 10.4-7.9 6.7-2.9 15.1-2.9 12.7 0 20.1 6.4 7.5 6.3 7.5 17.9v29.8q0.1 9.7 2.7 14.8zm-33.7-12.8q4.1 0 7.5-1.8 3.4-1.8 5.1-4.9v-11.8h-6.9q-13.7 0-14.6 9.5l-0.1 1.1q0 3.4 2.4 5.7 2.4 2.2 6.6 2.2zm106.9-21.9v0.9q0 15.9-7.2 25.5-7.2 9.5-19.4 9.5-10.4 0-16.9-7.2v32.4h-18.3v-95.1h17l0.6 6.7q6.7-8 17.4-8 12.7 0 19.8 9.4 7 9.4 7 25.9zm-18.3-0.4q0-9.6-3.4-14.8-3.4-5.2-9.9-5.2-8.6 0-11.9 6.6v28.1q3.4 6.8 12 6.8 13.2 0 13.2-21.5z"/>
		<path id="Course exploration, made easy" class="s2" aria-label="Course exploration, made easy"  d="m368.1 197h8.1q-0.5 6.3-4.7 9.9-4.2 3.6-11.1 3.6-7.5 0-11.8-5-4.3-5.1-4.3-13.9v-2.4q0-5.7 2-9.9 2-4.3 5.7-6.6 3.7-2.3 8.6-2.3 6.7 0 10.9 3.6 4.1 3.6 4.7 10.2h-8q-0.3-3.8-2.1-5.5-1.8-1.7-5.5-1.7-4.1 0-6.1 2.9-2 2.8-2 8.9v3q0 6.3 1.9 9.2 1.9 3 6 3 3.8 0 5.6-1.7 1.9-1.8 2.1-5.3zm11.7-1.4v-0.4q0-4.3 1.6-7.7 1.7-3.4 4.8-5.2 3.1-1.9 7.3-1.9 5.9 0 9.6 3.6 3.7 3.6 4.1 9.8l0.1 2q0 6.7-3.7 10.7-3.8 4-10.1 4-6.2 0-10-4-3.7-4-3.7-10.9zm7.7 0.2q0 4.1 1.6 6.3 1.5 2.2 4.4 2.2 2.9 0 4.4-2.2 1.6-2.1 1.6-6.9 0-4.1-1.6-6.3-1.5-2.2-4.4-2.2-2.9 0-4.4 2.2-1.6 2.2-1.6 6.9zm42.2 14.2l-0.2-3q-2.9 3.5-8 3.5-4.7 0-7.1-2.6-2.5-2.7-2.5-7.9v-19.1h7.7v18.8q0 4.6 4.2 4.6 3.9 0 5.4-2.8v-20.6h7.8v29.1zm29.6-29.2l-0.1 7.4q-1.6-0.2-2.8-0.2-4.4 0-5.8 3v19h-7.8v-29.1h7.4l0.2 3.5q2.3-4 6.5-4 1.3 0 2.4 0.4zm19.3 21.2q0-1.5-1.4-2.3-1.4-0.8-4.5-1.4-10.4-2.2-10.4-8.8 0-3.9 3.2-6.5 3.3-2.6 8.4-2.6 5.6 0 8.9 2.6 3.3 2.6 3.3 6.8h-7.8q0-1.7-1-2.8-1.1-1.1-3.4-1.1-1.9 0-3 0.9-1.1 0.9-1.1 2.3 0 1.3 1.2 2.1 1.3 0.8 4.2 1.3 2.9 0.6 4.8 1.3 6.2 2.3 6.2 7.8 0 4-3.4 6.5-3.4 2.4-8.8 2.4-3.7 0-6.5-1.3-2.8-1.3-4.5-3.5-1.6-2.3-1.6-4.9h7.4q0.1 2 1.5 3.1 1.4 1.1 3.8 1.1 2.3 0 3.4-0.8 1.1-0.9 1.1-2.2zm26 8.5q-6.4 0-10.5-3.9-4-3.9-4-10.4v-0.8q0-4.4 1.7-7.8 1.7-3.5 4.8-5.3 3.1-1.9 7.1-1.9 6 0 9.4 3.8 3.4 3.7 3.4 10.6v3.2h-18.5q0.4 2.8 2.3 4.6 1.9 1.7 4.8 1.7 4.5 0 7-3.3l3.8 4.3q-1.8 2.5-4.7 3.9-3 1.3-6.6 1.3zm-0.9-23.8q-2.3 0-3.8 1.5-1.4 1.6-1.8 4.5h10.8v-0.6q-0.1-2.6-1.4-4-1.4-1.4-3.8-1.4zm44.3 23.8q-6.4 0-10.4-3.9-4-3.9-4-10.4v-0.8q0-4.4 1.7-7.8 1.6-3.5 4.7-5.3 3.2-1.9 7.1-1.9 6 0 9.4 3.8 3.4 3.7 3.4 10.6v3.2h-18.5q0.4 2.8 2.3 4.6 1.9 1.7 4.8 1.7 4.5 0 7-3.3l3.8 4.3q-1.7 2.5-4.7 3.9-3 1.3-6.6 1.3zm-0.9-23.8q-2.3 0-3.8 1.5-1.4 1.6-1.8 4.5h10.8v-0.6q0-2.6-1.4-4-1.3-1.4-3.8-1.4zm23.5-5.8l4.8 8.7 4.9-8.7h8.3l-8.3 14.3 8.6 14.8h-8.3l-5.2-9.1-5.1 9.1h-8.4l8.6-14.8-8.2-14.3zm47.9 14.4v0.4q0 6.8-3.1 10.8-3 4-8.2 4-4.4 0-7.1-3v13.7h-7.8v-40.3h7.2l0.3 2.9q2.8-3.4 7.3-3.4 5.4 0 8.4 4 3 4 3 10.9zm-7.8-0.1q0-4.1-1.5-6.3-1.4-2.2-4.1-2.2-3.7 0-5 2.8v11.9q1.4 2.9 5 2.9 5.6 0 5.6-9.1zm20.8-26.4v41.2h-7.8v-41.3zm5.1 26.9v-0.4q0-4.3 1.7-7.7 1.7-3.4 4.8-5.2 3.1-1.9 7.3-1.9 5.9 0 9.6 3.6 3.7 3.6 4.1 9.8l0.1 2q0 6.7-3.8 10.7-3.7 4-10 4-6.3 0-10-4-3.8-4-3.8-10.9zm7.8 0.2q0 4.1 1.6 6.3 1.5 2.2 4.4 2.2 2.8 0 4.4-2.2 1.6-2.1 1.6-6.9 0-4.1-1.6-6.3-1.6-2.2-4.4-2.2-2.9 0-4.4 2.2-1.6 2.2-1.6 6.9zm41-15l-0.1 7.4q-1.6-0.2-2.8-0.2-4.4 0-5.8 3v19h-7.7v-29.1h7.3l0.2 3.5q2.3-4 6.5-4 1.3 0 2.4 0.4zm27.5 29.2h-7.8q-0.6-1-0.8-2.6-2.8 3.1-7.4 3.1-4.2 0-7-2.4-2.8-2.5-2.8-6.3 0-4.6 3.4-7.1 3.4-2.4 9.9-2.5h3.5v-1.6q0-2-1-3.2-1-1.2-3.2-1.2-2 0-3.1 0.9-1.1 0.9-1.1 2.6h-7.8q0-2.6 1.6-4.7 1.5-2.2 4.4-3.4 2.8-1.2 6.4-1.2 5.3 0 8.5 2.7 3.1 2.7 3.1 7.6v12.6q0.1 4.1 1.2 6.2zm-14.3-5.4q1.8 0 3.2-0.7 1.5-0.8 2.1-2.1v-5h-2.9q-5.8 0-6.2 4.1v0.4q0 1.5 1 2.4 1.1 0.9 2.8 0.9zm20.6-30.8h7.8v7.2h5v5.7h-5v14.5q0 1.6 0.6 2.3 0.6 0.7 2.4 0.7 1.3 0 2.3-0.2v5.9q-2.3 0.7-4.7 0.7-8.2 0-8.4-8.3v-15.6h-4.2v-5.7h4.2zm25.3 7.1v29.1h-7.8v-29.1zm-8.3-7.5q0-1.7 1.2-2.9 1.2-1.1 3.2-1.1 2 0 3.2 1.1 1.1 1.2 1.1 2.9 0 1.8-1.2 2.9-1.1 1.1-3.1 1.1-2 0-3.2-1.1-1.2-1.1-1.2-2.9zm13.5 22.1v-0.3q0-4.3 1.6-7.7 1.7-3.4 4.8-5.3 3.2-1.8 7.3-1.8 5.9 0 9.6 3.6 3.7 3.6 4.1 9.8l0.1 2q0 6.6-3.7 10.7-3.8 4-10.1 4-6.2 0-10-4-3.7-4-3.7-11zm7.7 0.3q0 4.1 1.6 6.3 1.5 2.2 4.4 2.2 2.9 0 4.5-2.2 1.5-2.2 1.5-6.9 0-4.1-1.5-6.3-1.6-2.2-4.5-2.2-2.9 0-4.4 2.2-1.6 2.2-1.6 6.9zm24.4-14.9h7.3l0.3 3.4q3.1-3.9 8.3-3.9 4.6 0 6.9 2.7 2.2 2.7 2.3 8.1v18.8h-7.8v-18.6q0-2.5-1-3.6-1.1-1.1-3.6-1.1-3.3 0-4.9 2.8v20.5h-7.8zm33 38.8l-4.1-2.1 1-1.7q1.8-3.3 1.9-6.5v-6.1h6.5v5.4q0 3-1.5 6-1.5 3.1-3.8 5zm25.1-38.8h7.3l0.2 3.2q3.1-3.8 8.4-3.8 5.6 0 7.7 4.5 3-4.5 8.7-4.5 4.7 0 7 2.8 2.4 2.8 2.4 8.3v18.5h-7.8v-18.5q0-2.5-1-3.6-1-1.1-3.4-1.1-3.5 0-4.8 3.3v19.9h-7.8v-18.5q0-2.5-1-3.6-1-1.1-3.4-1.1-3.3 0-4.7 2.7v20.5h-7.8zm72.3 29.1h-7.8q-0.6-1-0.8-2.6-2.8 3.1-7.4 3.1-4.2 0-7-2.4-2.8-2.5-2.8-6.3 0-4.6 3.4-7.1 3.4-2.4 9.9-2.4h3.6v-1.7q0-2-1.1-3.2-1-1.2-3.2-1.2-2 0-3.1 0.9-1.1 0.9-1.1 2.6h-7.8q0-2.6 1.6-4.7 1.5-2.1 4.4-3.4 2.8-1.2 6.4-1.2 5.3 0 8.5 2.7 3.1 2.7 3.1 7.6v12.6q0.1 4.1 1.2 6.2zm-14.3-5.4q1.8 0 3.2-0.7 1.5-0.8 2.2-2.1v-5h-2.9q-5.9 0-6.2 4.1l-0.1 0.4q0 1.5 1 2.4 1.1 0.9 2.8 0.9zm17.9-9.3q0-6.8 3-10.8 3.1-4 8.4-4 4.2 0 7 3.1v-14.8h7.8v41.2h-7l-0.4-3q-2.9 3.6-7.5 3.6-5.1 0-8.2-4-3.1-4.1-3.1-11.3zm7.8 0.6q0 4 1.4 6.2 1.4 2.2 4.1 2.2 3.6 0 5.1-3v-11.5q-1.5-3-5-3-5.6 0-5.6 9.1zm37.8 14.7q-6.4 0-10.4-3.9-4.1-4-4.1-10.5v-0.7q0-4.4 1.7-7.9 1.7-3.4 4.8-5.3 3.1-1.8 7.1-1.8 6 0 9.4 3.7 3.4 3.8 3.4 10.7v3.1h-18.5q0.4 2.9 2.3 4.6 1.9 1.7 4.8 1.7 4.5 0 7-3.2l3.8 4.2q-1.7 2.5-4.7 3.9-3 1.4-6.6 1.4zm-0.9-23.9q-2.3 0-3.8 1.6-1.4 1.6-1.8 4.5h10.8v-0.7q-0.1-2.5-1.4-3.9-1.3-1.5-3.8-1.5zm44.3 23.9q-6.4 0-10.4-3.9-4-4-4-10.5v-0.7q0-4.4 1.7-7.9 1.7-3.4 4.7-5.3 3.2-1.8 7.1-1.8 6 0 9.4 3.7 3.4 3.8 3.4 10.7v3.1h-18.5q0.4 2.9 2.3 4.6 1.9 1.7 4.8 1.7 4.5 0 7-3.2l3.8 4.2q-1.7 2.5-4.7 3.9-3 1.4-6.6 1.4zm-0.9-23.9q-2.3 0-3.7 1.6-1.5 1.6-1.9 4.5h10.8v-0.7q0-2.5-1.4-3.9-1.3-1.5-3.8-1.5zm41.9 23.3h-7.8q-0.5-1-0.8-2.6-2.8 3.2-7.3 3.2-4.3 0-7.1-2.5-2.8-2.5-2.8-6.2 0-4.6 3.4-7.1 3.4-2.5 9.9-2.5h3.6v-1.7q0-2-1.1-3.2-1-1.2-3.2-1.2-2 0-3.1 0.9-1.1 1-1.1 2.6h-7.8q0-2.5 1.6-4.7 1.6-2.1 4.4-3.3 2.8-1.2 6.4-1.2 5.4 0 8.5 2.7 3.2 2.6 3.2 7.5v12.6q0 4.2 1.1 6.3zm-14.2-5.4q1.7 0 3.1-0.8 1.5-0.7 2.2-2v-5h-2.9q-5.8 0-6.2 4v0.5q0 1.4 1 2.4 1 0.9 2.8 0.9zm34.8-2.6q0-1.5-1.4-2.3-1.4-0.8-4.6-1.4-10.3-2.2-10.3-8.9 0-3.8 3.2-6.4 3.2-2.6 8.4-2.6 5.5 0 8.8 2.6 3.3 2.6 3.3 6.8h-7.7q0-1.7-1.1-2.8-1.1-1.1-3.4-1.1-1.9 0-3 0.9-1.1 0.9-1.1 2.3 0 1.3 1.2 2.1 1.3 0.7 4.2 1.3 2.9 0.6 4.9 1.3 6.1 2.3 6.1 7.8 0 4-3.4 6.5-3.4 2.4-8.8 2.4-3.6 0-6.5-1.3-2.8-1.3-4.4-3.5-1.6-2.3-1.6-4.9h7.3q0.1 2 1.6 3.1 1.4 1.1 3.8 1.1 2.2 0 3.3-0.8 1.2-0.9 1.2-2.2zm18-21.1l5.4 18.1 5.3-18.1h8.4l-11.7 33.6-0.7 1.5q-2.6 5.7-8.6 5.7-1.6 0-3.4-0.5v-5.9l1.2 0.1q2.2 0 3.3-0.7 1.1-0.7 1.7-2.2l0.9-2.4-10.2-29.2z"/>
	</g>
</svg>